<svg width="69" height="54" viewBox="0 0 69 54" fill="none" xmlns="http://www.w3.org/2000/svg">
<path d="M55.0574 18.4539C55.3136 18.4539 55.5734 18.4786 55.8343 18.5299C58.002 18.9566 59.4134 21.0599 58.9868 23.2278C58.6114 25.1347 56.9387 26.4565 55.0661 26.4565C54.8099 26.4565 54.5501 26.4318 54.2892 26.3805C52.1215 25.9538 50.7101 23.8505 51.1367 21.6827C51.5119 19.7758 53.1848 18.4541 55.0574 18.4539ZM55.0576 13.9539C51.0097 13.9541 47.5036 16.8392 46.7214 20.8137C45.8164 25.4126 48.8213 29.8905 53.42 30.7958C53.962 30.9025 54.5158 30.9566 55.066 30.9566C59.1137 30.9566 62.6195 28.0718 63.4019 24.0971C64.3069 19.4979 61.3019 15.02 56.7033 14.1147C56.1613 14.008 55.6077 13.9539 55.0576 13.9539Z" fill="white"/>
<path d="M36.3169 11.0097C37.5549 11.8475 38.6345 12.9195 39.5012 14.1902L45.8967 7.7949L48.0993 12.6959C49.3188 11.8242 50.7018 11.1801 52.1855 10.812L47.3264 0L36.3169 11.0097Z" fill="white"/>
<path d="M68.5957 47.3271L61.8592 32.3378C60.6262 33.1878 59.2285 33.8008 57.738 34.1433L61.6406 42.8271H52.5178C52.7976 44.2952 52.8017 45.8162 52.5132 47.3271H68.5957Z" fill="white"/>
<path d="M10.8633 42.8271L22.8274 30.8633C21.5933 30.0208 20.5156 28.9474 19.6537 27.673L0 47.3271H28.9408C28.6608 45.8591 28.6565 44.338 28.9453 42.8271H10.8633Z" fill="white"/>
<path d="M29.5872 16.9497C29.8434 16.9497 30.1032 16.9744 30.3641 17.0257C32.5318 17.4524 33.9432 19.5557 33.5166 21.7235C33.1414 23.6305 31.4685 24.9523 29.5959 24.9523C29.3397 24.9523 29.0799 24.9276 28.819 24.8763C26.6513 24.4496 25.2399 22.3463 25.6665 20.1785C26.0417 18.2715 27.7145 16.9499 29.5872 16.9497ZM29.5873 12.4497C25.5394 12.4499 22.0335 15.3349 21.2513 19.3095C20.3461 23.9084 23.3512 28.3863 27.9499 29.2916C28.4919 29.3983 29.0457 29.4524 29.5959 29.4524C33.6439 29.4524 37.1496 26.5675 37.9318 22.5926C38.837 17.9937 35.8318 13.5158 31.2332 12.6105C30.6912 12.5038 30.1375 12.4497 29.5873 12.4497Z" fill="white"/>
<path d="M52.9156 26.5534L50.0738 23.0651L43.4229 28.4828L34.5391 21.8268L31.8408 25.4284L40.957 32.2585L39.1216 40.1598L43.5044 41.1774L45.4984 32.5955L52.9156 26.5534Z" fill="white"/>
<path d="M40.725 41.0754C40.9812 41.0754 41.241 41.1001 41.5019 41.1514C43.6696 41.5781 45.0811 43.6814 44.6544 45.8492C44.2792 47.7562 42.6064 49.078 40.7339 49.078C40.4777 49.078 40.2179 49.0533 39.957 49.002C37.7893 48.5753 36.3778 46.472 36.8045 44.3042C37.1797 42.3972 38.8526 41.0756 40.725 41.0754ZM40.7253 36.5754C36.6773 36.5756 33.1714 39.4606 32.3892 43.4352C31.9506 45.6628 32.4059 47.9281 33.6712 49.8135C34.9363 51.6989 36.86 52.9787 39.0878 53.4173C39.6298 53.524 40.1836 53.5781 40.7338 53.5781C44.7817 53.5781 48.2874 50.6932 49.0696 46.7183C49.5082 44.4907 49.0529 42.2254 47.7876 40.34C46.5225 38.4546 44.5988 37.1748 42.371 36.7362C41.829 36.6295 41.2753 36.5754 40.7253 36.5754Z" fill="white"/>
</svg>
